<mxfile host="Electron" agent="Mozilla/5.0 (Windows NT 10.0; Win64; x64) AppleWebKit/537.36 (KHTML, like Gecko) draw.io/24.7.17 Chrome/128.0.6613.36 Electron/32.0.1 Safari/537.36" version="24.7.17">
  <diagram name="Página-1" id="_k0i-jU0oLAjrkkL1CsF">
    <mxGraphModel dx="1035" dy="2964" grid="1" gridSize="10" guides="1" tooltips="1" connect="1" arrows="1" fold="1" page="1" pageScale="1" pageWidth="827" pageHeight="1169" math="0" shadow="0">
      <root>
        <mxCell id="0" />
        <mxCell id="1" parent="0" />
        <mxCell id="mATze2t21B-bZjF-r76W-9" value="Diagrama de Despliegue" style="shape=folder;fontStyle=1;spacingTop=10;tabWidth=40;tabHeight=14;tabPosition=left;html=1;whiteSpace=wrap;verticalAlign=top;horizontal=1;" vertex="1" parent="1">
          <mxGeometry x="94" y="-2320" width="726" height="1140" as="geometry" />
        </mxCell>
        <mxCell id="mATze2t21B-bZjF-r76W-10" value="&amp;lt;&amp;lt;Workstation&amp;gt;&amp;gt;" style="verticalAlign=top;align=left;spacingTop=8;spacingLeft=2;spacingRight=12;shape=cube;size=10;direction=south;fontStyle=4;html=1;whiteSpace=wrap;" vertex="1" parent="1">
          <mxGeometry x="114" y="-2095" width="196" height="120" as="geometry" />
        </mxCell>
        <mxCell id="mATze2t21B-bZjF-r76W-11" value="Usuario" style="shape=umlActor;verticalLabelPosition=bottom;verticalAlign=top;html=1;" vertex="1" parent="1">
          <mxGeometry x="14" y="-2055" width="30" height="60" as="geometry" />
        </mxCell>
        <mxCell id="mATze2t21B-bZjF-r76W-12" value="&lt;b&gt;Browser&lt;/b&gt;" style="html=1;dropTarget=0;whiteSpace=wrap;" vertex="1" parent="1">
          <mxGeometry x="154" y="-2045" width="116" height="40" as="geometry" />
        </mxCell>
        <mxCell id="mATze2t21B-bZjF-r76W-13" value="" style="shape=module;jettyWidth=8;jettyHeight=4;" vertex="1" parent="mATze2t21B-bZjF-r76W-12">
          <mxGeometry x="1" width="20" height="20" relative="1" as="geometry">
            <mxPoint x="-27" y="7" as="offset" />
          </mxGeometry>
        </mxCell>
        <mxCell id="mATze2t21B-bZjF-r76W-14" value="" style="shape=note2;size=24;childLayout=stackLayout;horizontalStack=0;resizeParent=1;resizeParentMax=0;resizeLast=0;collapsible=0;marginBottom=0;html=1;container=1;verticalAlign=bottom;" vertex="1" parent="1">
          <mxGeometry x="154" y="-2150" width="125" height="40" as="geometry" />
        </mxCell>
        <mxCell id="mATze2t21B-bZjF-r76W-15" value="&lt;div&gt;&lt;span style=&quot;font-size: 9px; background-color: initial;&quot;&gt;Firefox, Chrome, Edge (versión 90 +)&lt;/span&gt;&lt;br&gt;&lt;/div&gt;" style="text;html=1;strokeColor=none;fillColor=none;align=left;verticalAlign=top;spacingLeft=4;spacingRight=4;overflow=hidden;rotatable=0;points=[[0,0.5],[1,0.5]];portConstraint=eastwest;whiteSpace=wrap;" vertex="1" parent="mATze2t21B-bZjF-r76W-14">
          <mxGeometry width="125" height="40" as="geometry" />
        </mxCell>
        <mxCell id="mATze2t21B-bZjF-r76W-18" value="&lt;font style=&quot;font-size: 11px;&quot;&gt;&amp;lt;&amp;lt;&lt;/font&gt;&lt;font style=&quot;font-size: 9px;&quot;&gt;Server&lt;/font&gt;&lt;font style=&quot;font-size: 11px;&quot;&gt;&amp;gt;&amp;gt;&lt;/font&gt;&lt;div style=&quot;&quot;&gt;&lt;font style=&quot;font-size: 9px;&quot;&gt;IIS Express&lt;/font&gt;&lt;/div&gt;" style="verticalAlign=top;align=left;spacingTop=8;spacingLeft=2;spacingRight=12;shape=cube;size=10;direction=south;fontStyle=4;html=1;whiteSpace=wrap;" vertex="1" parent="1">
          <mxGeometry x="410" y="-2218" width="350" height="310" as="geometry" />
        </mxCell>
        <mxCell id="mATze2t21B-bZjF-r76W-19" value="" style="html=1;verticalAlign=bottom;endArrow=block;curved=0;rounded=0;exitX=0.5;exitY=0.5;exitDx=0;exitDy=0;exitPerimeter=0;entryX=0.589;entryY=0.993;entryDx=0;entryDy=0;entryPerimeter=0;" edge="1" parent="1" source="mATze2t21B-bZjF-r76W-11" target="mATze2t21B-bZjF-r76W-10">
          <mxGeometry width="80" relative="1" as="geometry">
            <mxPoint x="50" y="-2015.59" as="sourcePoint" />
            <mxPoint x="130" y="-2015.59" as="targetPoint" />
          </mxGeometry>
        </mxCell>
        <mxCell id="mATze2t21B-bZjF-r76W-20" value="&lt;font style=&quot;font-size: 8px;&quot;&gt;Servidor localhost&lt;/font&gt;" style="verticalAlign=top;align=left;spacingTop=8;spacingLeft=2;spacingRight=12;shape=cube;size=10;direction=south;fontStyle=4;html=1;whiteSpace=wrap;" vertex="1" parent="1">
          <mxGeometry x="420" y="-2168" width="320" height="240" as="geometry" />
        </mxCell>
        <mxCell id="mATze2t21B-bZjF-r76W-21" value="&lt;font style=&quot;font-size: 8px;&quot;&gt;&amp;nbsp;Vanessa.sln&lt;/font&gt;" style="html=1;whiteSpace=wrap;align=left;verticalAlign=top;" vertex="1" parent="1">
          <mxGeometry x="450" y="-2118" width="250" height="170" as="geometry" />
        </mxCell>
        <mxCell id="mATze2t21B-bZjF-r76W-22" value="&lt;br&gt;&lt;b&gt;Verificación de acceso&lt;/b&gt;" style="html=1;dropTarget=0;whiteSpace=wrap;" vertex="1" parent="1">
          <mxGeometry x="489.37" y="-2083" width="181.25" height="40" as="geometry" />
        </mxCell>
        <mxCell id="mATze2t21B-bZjF-r76W-23" value="" style="shape=module;jettyWidth=8;jettyHeight=4;" vertex="1" parent="mATze2t21B-bZjF-r76W-22">
          <mxGeometry x="1" width="20" height="20" relative="1" as="geometry">
            <mxPoint x="-27" y="7" as="offset" />
          </mxGeometry>
        </mxCell>
        <mxCell id="mATze2t21B-bZjF-r76W-26" value="&lt;br&gt;&lt;b&gt;Acceso al sitema&lt;/b&gt;" style="html=1;dropTarget=0;whiteSpace=wrap;" vertex="1" parent="1">
          <mxGeometry x="498.75" y="-2008" width="162.5" height="40" as="geometry" />
        </mxCell>
        <mxCell id="mATze2t21B-bZjF-r76W-27" value="" style="shape=module;jettyWidth=8;jettyHeight=4;" vertex="1" parent="mATze2t21B-bZjF-r76W-26">
          <mxGeometry x="1" width="20" height="20" relative="1" as="geometry">
            <mxPoint x="-27" y="7" as="offset" />
          </mxGeometry>
        </mxCell>
        <mxCell id="mATze2t21B-bZjF-r76W-28" value="" style="endArrow=block;dashed=1;endFill=0;endSize=12;html=1;rounded=0;exitX=0.595;exitY=0.006;exitDx=0;exitDy=0;exitPerimeter=0;entryX=0.304;entryY=1.009;entryDx=0;entryDy=0;entryPerimeter=0;" edge="1" parent="1" source="mATze2t21B-bZjF-r76W-10" target="mATze2t21B-bZjF-r76W-18">
          <mxGeometry width="160" relative="1" as="geometry">
            <mxPoint x="490" y="-2130" as="sourcePoint" />
            <mxPoint x="650" y="-2130" as="targetPoint" />
            <Array as="points">
              <mxPoint x="340" y="-2024" />
              <mxPoint x="340" y="-2124" />
            </Array>
          </mxGeometry>
        </mxCell>
        <mxCell id="mATze2t21B-bZjF-r76W-29" value="Conexion HTTPS" style="edgeLabel;html=1;align=center;verticalAlign=middle;resizable=0;points=[];rotation=0;" vertex="1" connectable="0" parent="mATze2t21B-bZjF-r76W-28">
          <mxGeometry x="0.471" y="1" relative="1" as="geometry">
            <mxPoint x="-4" y="-15" as="offset" />
          </mxGeometry>
        </mxCell>
        <mxCell id="mATze2t21B-bZjF-r76W-30" value="" style="endArrow=open;endSize=12;dashed=1;html=1;rounded=0;exitX=0.5;exitY=1;exitDx=0;exitDy=0;entryX=0.5;entryY=0;entryDx=0;entryDy=0;" edge="1" parent="1" source="mATze2t21B-bZjF-r76W-22" target="mATze2t21B-bZjF-r76W-26">
          <mxGeometry width="160" relative="1" as="geometry">
            <mxPoint x="520" y="-2100" as="sourcePoint" />
            <mxPoint x="680" y="-2100" as="targetPoint" />
          </mxGeometry>
        </mxCell>
        <mxCell id="mATze2t21B-bZjF-r76W-33" value="&lt;font style=&quot;font-size: 11px;&quot;&gt;&amp;lt;&amp;lt;&lt;/font&gt;&lt;font style=&quot;font-size: 9px;&quot;&gt;Server&lt;/font&gt;&lt;font style=&quot;font-size: 11px;&quot;&gt;&amp;gt;&amp;gt;&lt;/font&gt;&lt;div style=&quot;&quot;&gt;&lt;font style=&quot;font-size: 9px;&quot;&gt;IIS Express&lt;/font&gt;&lt;/div&gt;" style="verticalAlign=top;align=left;spacingTop=8;spacingLeft=2;spacingRight=12;shape=cube;size=10;direction=south;fontStyle=4;html=1;whiteSpace=wrap;" vertex="1" parent="1">
          <mxGeometry x="230" y="-1760" width="560" height="310" as="geometry" />
        </mxCell>
        <mxCell id="mATze2t21B-bZjF-r76W-34" value="&lt;font style=&quot;font-size: 8px;&quot;&gt;Servidor localhost&lt;/font&gt;" style="verticalAlign=top;align=left;spacingTop=8;spacingLeft=2;spacingRight=12;shape=cube;size=10;direction=south;fontStyle=4;html=1;whiteSpace=wrap;" vertex="1" parent="1">
          <mxGeometry x="280" y="-1710" width="490" height="240" as="geometry" />
        </mxCell>
        <mxCell id="mATze2t21B-bZjF-r76W-35" value="&lt;font style=&quot;font-size: 8px;&quot;&gt;&amp;nbsp;Vanessa.sln&lt;/font&gt;" style="html=1;whiteSpace=wrap;align=left;verticalAlign=top;" vertex="1" parent="1">
          <mxGeometry x="340" y="-1660" width="390" height="170" as="geometry" />
        </mxCell>
        <mxCell id="mATze2t21B-bZjF-r76W-37" value="" style="shape=note2;size=24;childLayout=stackLayout;horizontalStack=0;resizeParent=1;resizeParentMax=0;resizeLast=0;collapsible=0;marginBottom=0;html=1;container=1;verticalAlign=bottom;" vertex="1" parent="1">
          <mxGeometry x="466.25" y="-2280" width="217.5" height="50" as="geometry" />
        </mxCell>
        <mxCell id="mATze2t21B-bZjF-r76W-38" value="&lt;font size=&quot;1&quot;&gt;Windows 10 (64-bits) (minimo)&lt;/font&gt;&lt;div&gt;&lt;font size=&quot;1&quot;&gt;Visual Studio 2019 (minimo)&lt;/font&gt;&lt;/div&gt;&lt;div&gt;&lt;font size=&quot;1&quot;&gt;SQL Server 20122 (minimo)&lt;/font&gt;&lt;/div&gt;" style="text;html=1;strokeColor=none;fillColor=none;align=left;verticalAlign=top;spacingLeft=4;spacingRight=4;overflow=hidden;rotatable=0;points=[[0,0.5],[1,0.5]];portConstraint=eastwest;whiteSpace=wrap;" vertex="1" parent="mATze2t21B-bZjF-r76W-37">
          <mxGeometry width="217.5" height="50" as="geometry" />
        </mxCell>
        <mxCell id="mATze2t21B-bZjF-r76W-40" value="" style="endArrow=block;dashed=1;endFill=0;endSize=12;html=1;rounded=0;exitX=1.003;exitY=0.717;exitDx=0;exitDy=0;exitPerimeter=0;entryX=0;entryY=0;entryDx=0;entryDy=215;entryPerimeter=0;" edge="1" parent="1" source="mATze2t21B-bZjF-r76W-18" target="mATze2t21B-bZjF-r76W-33">
          <mxGeometry width="160" relative="1" as="geometry">
            <mxPoint x="290" y="-1720" as="sourcePoint" />
            <mxPoint x="450" y="-1720" as="targetPoint" />
            <Array as="points">
              <mxPoint x="510" y="-1830" />
              <mxPoint x="575" y="-1830" />
            </Array>
          </mxGeometry>
        </mxCell>
        <mxCell id="mATze2t21B-bZjF-r76W-41" value="Conexion HTTPS" style="edgeLabel;html=1;align=center;verticalAlign=middle;resizable=0;points=[];rotation=0;" vertex="1" connectable="0" parent="1">
          <mxGeometry x="585.004928617238" y="-1849.996783065755" as="geometry" />
        </mxCell>
        <mxCell id="mATze2t21B-bZjF-r76W-42" value="&lt;br&gt;&lt;b&gt;Perfil&lt;/b&gt;" style="html=1;dropTarget=0;whiteSpace=wrap;align=left;" vertex="1" parent="1">
          <mxGeometry x="373.75" y="-1632.5" width="142.5" height="35" as="geometry" />
        </mxCell>
        <mxCell id="mATze2t21B-bZjF-r76W-43" value="" style="shape=module;jettyWidth=8;jettyHeight=4;" vertex="1" parent="mATze2t21B-bZjF-r76W-42">
          <mxGeometry x="1" width="20" height="20" relative="1" as="geometry">
            <mxPoint x="-27" y="7" as="offset" />
          </mxGeometry>
        </mxCell>
        <mxCell id="mATze2t21B-bZjF-r76W-44" value="&lt;br&gt;&lt;b&gt;Semilleros&lt;/b&gt;" style="html=1;dropTarget=0;whiteSpace=wrap;align=left;" vertex="1" parent="1">
          <mxGeometry x="553.75" y="-1582.5" width="142.5" height="35" as="geometry" />
        </mxCell>
        <mxCell id="mATze2t21B-bZjF-r76W-45" value="" style="shape=module;jettyWidth=8;jettyHeight=4;" vertex="1" parent="mATze2t21B-bZjF-r76W-44">
          <mxGeometry x="1" width="20" height="20" relative="1" as="geometry">
            <mxPoint x="-27" y="7" as="offset" />
          </mxGeometry>
        </mxCell>
        <mxCell id="mATze2t21B-bZjF-r76W-46" value="&lt;br&gt;&lt;b&gt;Proyectos&lt;/b&gt;" style="html=1;dropTarget=0;whiteSpace=wrap;align=left;" vertex="1" parent="1">
          <mxGeometry x="373.75" y="-1582.5" width="142.5" height="35" as="geometry" />
        </mxCell>
        <mxCell id="mATze2t21B-bZjF-r76W-47" value="" style="shape=module;jettyWidth=8;jettyHeight=4;" vertex="1" parent="mATze2t21B-bZjF-r76W-46">
          <mxGeometry x="1" width="20" height="20" relative="1" as="geometry">
            <mxPoint x="-27" y="7" as="offset" />
          </mxGeometry>
        </mxCell>
        <mxCell id="mATze2t21B-bZjF-r76W-48" value="&lt;br&gt;&lt;b&gt;Publicaciones&lt;/b&gt;" style="html=1;dropTarget=0;whiteSpace=wrap;align=left;" vertex="1" parent="1">
          <mxGeometry x="463.75" y="-1540" width="142.5" height="35" as="geometry" />
        </mxCell>
        <mxCell id="mATze2t21B-bZjF-r76W-49" value="" style="shape=module;jettyWidth=8;jettyHeight=4;" vertex="1" parent="mATze2t21B-bZjF-r76W-48">
          <mxGeometry x="1" width="20" height="20" relative="1" as="geometry">
            <mxPoint x="-27" y="7" as="offset" />
          </mxGeometry>
        </mxCell>
        <mxCell id="mATze2t21B-bZjF-r76W-51" value="&lt;br&gt;&lt;b&gt;Gestion de usuarios&lt;/b&gt;" style="html=1;dropTarget=0;whiteSpace=wrap;align=left;" vertex="1" parent="1">
          <mxGeometry x="553.75" y="-1632.5" width="142.5" height="35" as="geometry" />
        </mxCell>
        <mxCell id="mATze2t21B-bZjF-r76W-52" value="" style="shape=module;jettyWidth=8;jettyHeight=4;" vertex="1" parent="mATze2t21B-bZjF-r76W-51">
          <mxGeometry x="1" width="20" height="20" relative="1" as="geometry">
            <mxPoint x="-27" y="7" as="offset" />
          </mxGeometry>
        </mxCell>
        <mxCell id="mATze2t21B-bZjF-r76W-53" value="&amp;lt;&amp;lt;Servidor de base de datos&amp;gt;&amp;gt;" style="verticalAlign=top;align=left;spacingTop=8;spacingLeft=2;spacingRight=12;shape=cube;size=10;direction=south;fontStyle=4;html=1;whiteSpace=wrap;" vertex="1" parent="1">
          <mxGeometry x="330" y="-1390" width="353.75" height="190" as="geometry" />
        </mxCell>
        <mxCell id="mATze2t21B-bZjF-r76W-54" value="" style="endArrow=block;dashed=1;endFill=0;endSize=12;html=1;rounded=0;exitX=0.5;exitY=1;exitDx=0;exitDy=0;entryX=0;entryY=0;entryDx=0;entryDy=146.5;entryPerimeter=0;" edge="1" parent="1" source="mATze2t21B-bZjF-r76W-35" target="mATze2t21B-bZjF-r76W-53">
          <mxGeometry width="160" relative="1" as="geometry">
            <mxPoint x="620" y="-1420" as="sourcePoint" />
            <mxPoint x="780" y="-1420" as="targetPoint" />
          </mxGeometry>
        </mxCell>
        <mxCell id="mATze2t21B-bZjF-r76W-55" value="SGBD" style="verticalAlign=top;align=left;spacingTop=8;spacingLeft=2;spacingRight=12;shape=cube;size=10;direction=south;fontStyle=4;html=1;whiteSpace=wrap;" vertex="1" parent="1">
          <mxGeometry x="360" y="-1340" width="300" height="120" as="geometry" />
        </mxCell>
        <mxCell id="mATze2t21B-bZjF-r76W-56" value="Motor de base de datos SQL Server" style="html=1;dropTarget=0;whiteSpace=wrap;align=left;" vertex="1" parent="1">
          <mxGeometry x="391.87" y="-1297.5" width="230" height="47.5" as="geometry" />
        </mxCell>
        <mxCell id="mATze2t21B-bZjF-r76W-57" value="" style="shape=module;jettyWidth=8;jettyHeight=4;" vertex="1" parent="mATze2t21B-bZjF-r76W-56">
          <mxGeometry x="1" width="20" height="20" relative="1" as="geometry">
            <mxPoint x="-27" y="7" as="offset" />
          </mxGeometry>
        </mxCell>
        <mxCell id="mATze2t21B-bZjF-r76W-60" value="" style="shape=note2;size=24;childLayout=stackLayout;horizontalStack=0;resizeParent=1;resizeParentMax=0;resizeLast=0;collapsible=0;marginBottom=0;html=1;container=1;verticalAlign=bottom;" vertex="1" parent="1">
          <mxGeometry x="103.25" y="-1330" width="217.5" height="50" as="geometry" />
        </mxCell>
        <mxCell id="mATze2t21B-bZjF-r76W-61" value="&lt;font size=&quot;1&quot;&gt;Conexiona a la base de datos 1000 secuencias a 28.8 kbps&lt;/font&gt;&lt;div&gt;&lt;font size=&quot;1&quot;&gt;Memorìa RAM 4GB&lt;/font&gt;&lt;/div&gt;" style="text;html=1;strokeColor=none;fillColor=none;align=left;verticalAlign=top;spacingLeft=4;spacingRight=4;overflow=hidden;rotatable=0;points=[[0,0.5],[1,0.5]];portConstraint=eastwest;whiteSpace=wrap;" vertex="1" parent="mATze2t21B-bZjF-r76W-60">
          <mxGeometry width="217.5" height="50" as="geometry" />
        </mxCell>
      </root>
    </mxGraphModel>
  </diagram>
</mxfile>
